# Blender 4.4.0
# www.blender.org
mtllib Mountain.mtl
o Cube
v 1.458227 -1.000000 -1.388218
v 1.241089 -1.000000 0.599960
v -0.763053 -1.000000 0.528998
v -0.563070 -1.000000 -1.608972
v 0.456884 0.523043 -0.454572
v 0.582661 -0.027536 -0.010737
v 0.122382 0.244092 -0.157046
v 0.307412 0.648714 -0.468471
v 0.318003 0.134525 -0.176285
v 1.070811 -0.888021 0.521451
v 1.051599 -0.704148 0.456454
v 0.931431 -0.616874 0.380704
v 0.927839 -0.612379 0.378160
v 0.738179 -0.389631 0.299481
v 0.685402 -0.387083 0.242278
v 0.125445 0.330239 -0.231939
v -0.789170 -1.000000 0.162174
v -0.706012 -1.000000 -0.156348
v -0.738148 -1.000000 -0.668123
v -0.565216 -1.000000 -1.178975
v -0.595865 -0.845714 0.347266
v -0.549869 -0.574369 0.289695
v -0.182761 -0.218039 0.037569
v 0.003554 -0.099626 0.016595
v -0.127539 0.073645 -0.146785
v 1.430040 -1.000000 -0.486223
v 1.272239 -1.000000 0.001845
v -0.143528 -0.736714 -1.403438
v -0.300401 -0.426584 -1.194291
v -0.285609 -0.389632 -1.167801
v -0.318024 -0.216235 -0.985134
v -0.018575 0.175958 -0.658628
v 0.030656 0.400401 -0.601451
v 0.928108 -1.000000 -1.482733
v 0.914014 -1.000000 -1.447653
v 0.904700 -1.000000 -1.448671
v 0.458382 -1.000000 -1.497415
v 0.455151 -1.000000 -1.497768
v 0.007848 -1.000000 -1.631371
v -0.558529 -1.000000 -1.608476
v 0.451432 0.330825 -0.267337
v 1.318220 -0.743472 -1.230849
v 1.317274 -0.741738 -1.229785
v 1.213820 -0.436801 -0.608525
v 0.829014 0.011793 -0.775935
v 0.707891 0.244557 -0.632499
v 0.511378 0.465208 -0.505448
v 0.311900 0.608416 -0.517126
v 0.798614 -1.000000 0.551636
v 0.214615 -1.000000 0.559634
v 0.212249 -1.000000 0.551240
v -0.283690 -1.000000 0.433432
v 0.656375 0.054471 -0.161164
v 0.189429 -0.213833 -1.005676
v -0.670761 -0.818238 0.144931
v -0.593745 -0.638215 0.094507
v 0.755004 -0.853084 0.484980
v 0.181676 -0.166765 0.133231
v 0.623163 -0.118821 0.101106
v 0.068071 -0.214619 -1.121845
v 1.166551 -0.687050 0.078222
v 0.762446 0.130784 -0.292400
v 0.169836 -0.187327 0.140601
v -0.062879 -0.875370 0.405044
v -0.006620 -0.493778 0.250431
v 0.515477 0.155930 -0.142105
v 0.606721 -0.211466 -1.130053
v 0.046973 0.258892 -0.369103
v 0.685105 -0.384824 0.242209
v 0.220450 -0.999165 0.488140
v 0.223382 -0.997327 0.487686
v 0.329525 -0.719310 0.382155
v 0.432582 -0.459187 0.401999
v -0.246837 -0.223684 -0.182424
v -0.206905 -0.237129 -0.578295
v -0.361080 -0.503081 -0.966810
v -0.501848 -0.558690 -0.586313
v -0.443810 -0.306658 -0.018889
v -0.717743 -0.790961 -0.193447
v -0.674512 -0.766737 -0.666080
v -0.356403 -0.698072 -1.266142
v 0.699176 -0.468389 -1.128217
v 0.078891 0.007639 -0.939208
v -0.173432 0.042242 -0.342754
v 1.232280 -0.812549 -0.624187
v -0.388529 -0.184934 -0.274485
v 0.872428 -0.187578 0.038466
v 0.922487 -0.995062 -1.478951
v 0.842336 -0.209953 -0.923729
v 0.478657 -0.053091 -0.883456
v 0.472408 -0.212148 -0.965585
v 0.479181 -0.479195 -1.261545
v 1.317268 -0.741728 -1.229779
v 0.890296 -0.042942 -0.806082
v 0.728362 0.074710 -0.798061
v 0.550563 0.355426 -0.792401
v 0.369587 -0.005470 -0.883484
v 0.009666 -0.532666 -1.229601
v 1.318220 -0.743472 -1.230849
v 0.423615 0.260252 -0.750363
v 0.968137 -0.350603 -0.493137
v 0.991098 -0.537962 0.006601
v 0.277631 0.375822 -0.751710
v 0.350966 0.302017 -0.215947
v 1.014162 -0.630941 0.255875
v 0.975329 -0.503374 0.264488
v -0.015168 -0.202196 0.070270
v 0.138732 -0.241346 0.159961
v 1.321152 -0.896788 -0.562187
v 1.188924 -0.839629 0.307941
v 1.353989 -1.000000 -0.251004
v 0.984614 -0.485053 -0.134523
v 1.275646 -0.567767 -0.909481
v 1.319865 -0.885211 -0.920351
v 1.152505 -0.553478 -0.326332
v 1.442279 -1.000000 -0.877865
v 1.237241 -0.657601 -0.642398
v 1.022686 -0.443100 -0.336057
v 1.208795 -0.767709 -0.373221
v 0.325921 0.524944 -0.344398
v 0.408263 0.415957 -0.330675
v 0.770975 0.189484 -0.463865
v 0.819892 0.169590 -0.670724
v 0.836020 0.069805 -0.535885
v 0.797745 -0.047328 -0.180286
v 0.928590 -0.283242 -0.273481
v 0.862988 -0.104519 -0.390521
v 0.602499 0.328084 -0.375628
v 0.678262 0.353741 -0.540621
v 0.722221 0.278637 -0.438463
v 1.270788 -0.557477 -0.885835
v 1.275159 -0.566735 -0.907110
v 0.973646 -0.327894 -1.026925
v 1.275229 -0.568742 -0.906581
v 0.585976 -0.697599 -1.201521
v 1.257102 -0.717066 -1.205495
v 1.293045 -0.640485 -1.043371
v 1.079946 -0.351940 -0.806175
v 1.292614 -0.701380 -1.205314
v 1.270963 -0.564477 -0.883580
v 0.460069 -0.995981 -1.493403
v 0.835469 -0.790496 -1.340142
v 0.336452 -0.348480 -1.135507
v 1.316959 -0.742927 -1.230326
v 0.217751 -0.768065 -1.466673
v 1.238328 -1.000000 -1.373052
v 0.466390 -1.000000 -1.496541
v 1.316468 -0.744586 -1.231947
v 1.106573 -0.878029 -1.363539
v 0.931034 -0.567028 -1.255512
v 0.455562 -0.991093 -1.493728
v -0.120099 -0.046726 -0.615323
v -0.352744 -0.402442 -0.780301
v -0.361273 -0.194354 -0.407948
v 0.115400 0.113338 -0.736238
v -0.308861 -0.885054 -1.511481
v -0.562931 -0.782802 -0.413178
v -0.307656 -0.885671 -1.511724
v -0.437273 -0.309018 -0.020659
v 0.462720 -0.997547 -1.494870
v 1.072271 -0.503819 -1.087217
v 0.462720 -0.997547 -1.494870
v -0.720113 -1.000000 -0.380902
v -0.527173 -0.640568 -1.056899
v -0.180079 -0.073603 -0.159365
v -0.325790 -0.395791 0.093804
v -0.510908 -0.298507 -0.284207
v -0.561313 -0.440941 -0.323056
v 0.676140 0.255560 -0.739905
v 0.684979 -0.385103 0.241222
v 0.406801 -0.382268 0.227128
vn -0.0000 -1.0000 -0.0000
vn 0.3923 0.5472 0.7394
vn 0.7905 0.5854 0.1803
vn 0.1422 0.6862 0.7134
vn -0.6886 0.5569 -0.4645
vn 0.2953 0.3985 -0.8683
vn 0.0115 0.3740 0.9273
vn -0.0026 0.4516 0.8922
vn -0.0891 0.2682 0.9592
vn -0.0697 0.7756 0.6273
vn 0.5225 0.6145 0.5911
vn 0.4692 0.6093 0.6392
vn 0.3003 0.6473 0.7006
vn -0.0501 0.7266 0.6852
vn -0.1236 0.7245 0.6781
vn -0.3444 0.4861 0.8032
vn 0.0167 0.4140 0.9101
vn -0.1627 0.9676 0.1932
vn -0.1001 0.3863 0.9169
vn -0.0803 0.6788 0.7299
vn -0.0321 0.9994 0.0091
vn 0.7345 0.0759 -0.6743
vn -0.2143 0.8821 0.4196
vn -0.3298 0.0588 0.9422
vn -0.0445 0.3596 0.9320
vn -0.0607 0.3744 0.9253
vn 0.0896 0.1363 0.9866
vn -0.1183 0.4089 0.9049
vn -0.5346 0.8444 -0.0338
vn 0.0125 0.4162 0.9092
vn -0.1755 0.6625 0.7282
vn -0.0801 0.4363 0.8962
vn -0.0287 0.6710 0.7409
vn -0.8594 0.4419 0.2574
vn -0.6474 0.7206 0.2480
vn -0.7109 0.5773 0.4015
vn -0.9282 0.2218 -0.2987
vn -0.9415 0.3136 0.1233
vn -0.9253 0.3117 0.2160
vn -0.3514 0.9329 0.0784
vn -0.6802 0.6331 -0.3694
vn -0.5400 0.6297 -0.5585
vn -0.7041 0.6922 0.1584
vn -0.8405 0.3978 -0.3678
vn -0.9186 0.3092 0.2462
vn -0.9631 0.2622 0.0605
vn -0.8856 0.4402 0.1478
vn -0.9653 0.2576 -0.0425
vn -0.7766 0.3059 -0.5507
vn -0.4114 0.9115 -0.0021
vn -0.8587 0.4432 0.2573
vn -0.6398 0.7685 0.0069
vn 0.5523 0.7802 -0.2938
vn 0.0209 0.7019 -0.7119
vn -0.2081 0.8824 -0.4221
vn 0.5765 0.7843 -0.2293
vn 0.6043 0.3967 -0.6910
vn 0.2310 0.6933 -0.6826
vn -0.3902 0.5643 -0.7275
vn 0.7299 0.6554 -0.1942
vn -0.4169 0.2055 -0.8854
vn 0.1531 0.4309 -0.8893
vn -0.1829 0.4262 -0.8860
vn 0.1989 0.4857 -0.8512
vn 0.1637 0.4002 -0.9017
vn 0.0900 0.7405 -0.6661
vn 0.6013 0.4896 -0.6315
vn -0.0295 0.6827 -0.7301
vn 0.2637 0.3883 -0.8830
vn -0.1249 0.6471 -0.7521
vn -0.1416 0.5092 -0.8489
vn 0.0930 0.5164 -0.8513
vn -0.2642 0.6200 -0.7388
vn 0.0165 -0.9883 -0.1515
vn 0.0048 0.6984 -0.7157
vn -0.7302 0.3359 -0.5949
vn 0.3298 0.8629 -0.3829
vn 0.6410 0.2254 -0.7337
vn 0.7802 0.2318 -0.5810
vn -0.0923 0.4740 -0.8756
vn 0.9466 0.3138 0.0742
vn 0.6757 0.6258 0.3896
vn 0.8823 0.4522 0.1308
vn 0.5576 0.7854 0.2688
vn 0.9538 0.3004 0.0066
vn 0.4428 0.6055 0.6613
vn 0.8890 0.4354 -0.1421
vn -0.2001 0.5209 0.8298
vn 0.8761 0.4820 0.0099
vn 0.3906 0.8298 0.3986
vn 0.9945 0.0916 -0.0512
vn 0.5106 0.7732 0.3761
vn 0.4985 0.6441 0.5802
vn 0.9443 -0.0000 -0.3292
vn 0.9690 0.0663 0.2380
vn 0.6799 0.7330 0.0212
vn 0.2950 0.4354 -0.8505
vn -0.7565 0.5285 -0.3853
vn 0.9549 0.2724 0.1183
vn 0.6483 0.1539 0.7456
vn 0.4934 0.7035 0.5115
vn -0.2529 0.6658 0.7019
vn 0.1352 0.3918 0.9101
vn -0.0208 0.4323 0.9015
vn -0.5218 0.3529 -0.7767
vn 0.4732 0.5901 -0.6542
vn -0.8017 0.5762 0.1590
vn -0.5221 0.5854 -0.6202
vn 0.3770 0.9207 -0.1004
vn 0.4356 0.7598 0.4826
vn 0.9568 0.2900 0.0196
vn -0.2115 0.4832 0.8496
vn -0.3446 0.4846 0.8040
vn 0.9740 0.2207 0.0517
vn 0.6002 0.7760 0.1940
vn 0.7887 0.6126 0.0505
vn 0.9778 0.1822 0.1034
vn 0.6211 0.7504 0.2262
vn 0.9827 0.0785 0.1677
vn 0.9719 0.0842 0.2200
vn 0.5559 0.7946 0.2441
vn 0.8240 0.4276 0.3718
vn 0.0011 0.4993 0.8664
vn 0.6761 0.5696 0.4674
vn 0.7990 0.4257 0.4247
vn 0.9282 0.3123 0.2023
vn 0.8243 0.5481 0.1422
vn 0.9260 0.3740 0.0520
vn 0.8887 0.4302 0.1588
vn 0.6980 0.5904 0.4054
vn 0.6337 0.7627 0.1297
vn 0.5485 0.6316 0.5480
vn 0.8329 0.5113 -0.2120
vn 0.7774 0.5601 -0.2861
vn -0.0699 0.6696 -0.7394
vn 0.7776 0.5440 -0.3152
vn 0.3392 0.6637 -0.6666
vn -0.0975 0.5917 -0.8002
vn 0.5176 0.0180 -0.8555
vn 0.3568 0.4515 -0.8178
vn -0.1231 0.6159 -0.7781
vn -0.3130 0.4260 -0.8488
vn -0.0295 0.9623 0.2703
vn -0.5723 -0.0000 -0.8200
vn -0.1126 0.7180 -0.6869
vn 0.0288 0.4695 -0.8825
vn 0.0831 0.6430 -0.7613
vn -0.0574 0.4977 -0.8655
vn -0.1251 0.3977 -0.9089
vn 0.2891 0.5192 -0.8042
vn 0.1226 0.5924 -0.7962
vn 0.4632 0.7743 -0.4311
vn 0.5424 0.5280 -0.6535
vn -0.1016 0.6812 -0.7250
vn -0.0021 0.2457 -0.9693
vn -0.8735 0.4395 -0.2094
vn -0.8319 0.5030 -0.2343
vn 0.3058 0.3760 -0.8747
vn -0.9736 0.1639 -0.1590
vn -0.8911 0.3501 -0.2886
vn -0.9029 0.4295 -0.0160
vn -0.6989 0.2952 -0.6515
vn -0.6333 0.5514 -0.5430
vn -0.0557 0.7688 0.6371
vn -0.9125 -0.1002 0.3965
vn -0.0639 0.6319 -0.7724
vn -0.7251 0.6672 -0.1707
vn 0.1102 0.5888 -0.8007
vn -0.0079 0.6519 -0.7583
vn -0.8979 0.3607 0.2523
vn -0.5222 0.1022 0.8467
vn -0.2606 0.5506 0.7930
vn -0.3655 0.5351 0.7616
vn -0.2426 0.4910 0.8367
vn -0.7505 0.6445 0.1462
vn -0.4251 0.3881 0.8177
vn -0.6038 0.6679 -0.4351
vn -0.3657 0.7773 -0.5120
vn 0.9112 0.3386 -0.2347
vn 0.4750 0.5070 -0.7192
vn 0.6584 0.7286 -0.1888
vn 0.5812 0.7275 -0.3646
vn -0.6990 0.7146 0.0282
vn -0.6787 0.6486 -0.3445
vn -0.7842 0.5370 0.3108
vn -0.9330 0.3186 0.1674
vn -0.4022 0.9039 -0.1459
s 0
usemtl 
f 1//1 116//1 26//1 111//1 27//1 2//1 49//1 50//1 51//1 52//1 3//1 17//1 18//1 163//1 19//1 20//1 4//1 40//1 39//1 38//1 37//1 147//1 36//1 35//1 34//1 146//1
f 41//2 121//2 120//2 104//2
f 27//3 110//3 10//3 2//3
f 52//4 21//4 3//4
f 157//5 79//5 78//5
f 35//6 88//6 149//6 148//6 146//6 34//6
f 64//7 65//7 22//7
f 24//8 9//8 7//8 25//8
f 52//9 64//9 22//9 21//9
f 22//10 65//10 166//10
f 125//11 53//11 66//11 6//11
f 128//12 5//12 41//12
f 87//13 6//13 9//13 59//13 170//13
f 9//14 63//14 58//14 59//14
f 9//15 24//15 63//15
f 107//16 65//16 108//16
f 59//17 58//17 63//17 171//17
f 15//18 73//18 14//18 69//18
f 70//19 71//19 72//19 65//19 64//19
f 70//20 64//20 52//20 51//20
f 50//21 70//21 51//21
f 69//22 14//22 15//22
f 73//23 171//23 65//23
f 72//24 73//24 65//24
f 171//25 63//25 108//25 65//25
f 71//26 13//26 72//26
f 72//27 13//27 14//27 73//27
f 10//28 11//28 12//28 57//28
f 50//29 71//29 70//29
f 49//30 57//30 50//30
f 50//31 57//31 12//31 13//31 71//31
f 2//32 10//32 57//32 49//32
f 170//33 59//33 171//33 73//33 15//33
f 75//34 152//34 31//34
f 25//35 7//35 16//35 84//35
f 33//36 68//36 8//36
f 19//37 80//37 164//37 20//37
f 32//38 152//38 68//38 33//38
f 165//39 23//39 25//39
f 23//40 74//40 159//40
f 77//41 154//41 75//41 153//41
f 77//42 167//42 86//42
f 3//43 21//43 55//43 17//43
f 168//44 167//44 77//44
f 21//45 22//45 56//45 55//45
f 163//46 80//46 19//46
f 55//47 56//47 78//47 79//47
f 17//48 55//48 79//48 18//48
f 81//49 76//49 29//49 28//49
f 4//50 20//50 156//50
f 153//51 75//51 31//51
f 164//52 80//52 76//52
f 95//53 45//53 94//53
f 37//54 141//54 160//54
f 155//55 97//55 83//55 31//55
f 5//56 47//56 96//56 48//56
f 95//57 96//57 169//57
f 95//58 46//58 123//58
f 8//59 48//59 103//59 32//59 33//59
f 138//60 44//60 43//60 139//60
f 103//61 97//61 155//61
f 95//62 94//62 89//62 90//62 97//62
f 136//63 139//63 43//63 42//63 144//63
f 54//64 143//64 98//64 60//64
f 97//65 90//65 91//65 54//65 83//65
f 143//66 54//66 91//66
f 83//67 54//67 60//67
f 39//68 40//68 158//68
f 92//69 151//69 145//69
f 39//70 98//70 145//70
f 60//71 98//71 30//71 31//71
f 158//72 40//72 4//72 156//72
f 31//73 83//73 60//73
f 36//74 88//74 35//74
f 149//75 144//75 148//75
f 90//76 67//76 91//76
f 89//77 67//77 90//77
f 82//78 67//78 89//78
f 151//79 92//79 135//79 141//79
f 92//80 91//80 67//80 82//80
f 101//81 126//81 87//81 102//81 112//81
f 11//82 105//82 106//82 13//82 12//82
f 111//83 119//83 110//83 27//83
f 118//84 101//84 112//84
f 53//11 41//11 66//11
f 101//85 45//85 124//85 127//85
f 62//86 128//86 41//86 53//86
f 122//87 46//87 129//87 130//87
f 6//88 66//88 9//88
f 126//89 125//89 87//89
f 125//90 6//90 87//90
f 124//91 45//91 123//91
f 115//92 44//92 101//92 118//92
f 101//93 44//93 45//93
f 1//94 42//94 99//94
f 117//95 44//95 115//95
f 26//96 116//96 109//96
f 99//97 42//97 43//97 93//97
f 44//98 131//98 132//98 113//98 137//98 93//98 43//98
f 1//99 99//99 93//99 137//99 113//99 114//99
f 102//100 87//100 170//100 15//100
f 5//101 48//101 8//101 121//101 41//101
f 8//102 16//102 120//102
f 9//103 104//103 16//103 7//103
f 66//104 41//104 104//104 9//104
f 48//105 96//105 100//105
f 103//106 48//106 100//106
f 8//107 68//107 16//107
f 84//108 75//108 154//108
f 102//109 15//109 106//109
f 15//110 14//110 13//110 106//110
f 105//111 102//111 106//111
f 23//112 107//112 24//112
f 24//113 107//113 108//113 63//113
f 110//114 119//114 61//114
f 26//115 109//115 111//115
f 109//116 85//116 119//116 111//116
f 85//117 117//117 115//117 61//117 119//117
f 61//118 115//118 118//118
f 113//119 132//119 134//119
f 114//120 113//120 134//120 117//120 85//120
f 116//96 1//96 114//96
f 109//96 116//96 114//96 85//96
f 61//121 118//121 112//121 102//121 105//121 11//121
f 110//122 61//122 11//122 10//122
f 16//123 104//123 120//123
f 121//124 8//124 120//124
f 62//125 53//125 125//125 127//125
f 127//126 124//126 62//126
f 62//127 124//127 123//127 46//127 122//127
f 101//128 127//128 126//128
f 127//129 125//129 126//129
f 130//130 128//130 62//130 122//130
f 130//131 129//131 47//131 5//131
f 128//132 130//132 5//132
f 131//119 44//119 140//119
f 94//133 45//133 138//133 133//133
f 132//119 131//119 140//119 44//119 117//119 134//119
f 45//134 44//134 138//134
f 82//135 89//135 133//135 150//135
f 133//136 138//136 161//136
f 136//137 150//137 161//137 139//137
f 89//138 94//138 133//138
f 151//69 38//69 39//69 145//69
f 135//139 92//139 82//139
f 38//140 151//140 141//140 37//140
f 98//70 92//70 145//70
f 92//66 143//66 91//66
f 143//141 92//141 98//141
f 82//142 142//142 135//142
f 37//143 160//143 162//143
f 162//144 160//144 141//144
f 142//145 162//145 141//145 135//145
f 36//146 147//146 162//146 142//146 88//146
f 147//147 37//147 162//147
f 146//148 148//148 42//148 1//148
f 148//75 144//75 42//75
f 142//149 82//149 150//149 149//149
f 149//150 150//150 136//150 144//150
f 88//151 142//151 149//151
f 138//152 139//152 161//152
f 150//153 133//153 161//153
f 32//154 155//154 31//154
f 96//155 95//155 97//155 100//155
f 152//34 32//34 31//34
f 77//156 86//156 154//156
f 76//157 77//157 153//157
f 103//158 100//158 97//158
f 32//61 103//61 155//61
f 76//159 153//159 31//159 30//159 29//159
f 152//160 75//160 84//160
f 28//72 158//72 156//72
f 18//161 79//161 157//161 80//161 163//161
f 20//162 164//162 81//162
f 20//163 81//163 28//163 156//163
f 22//164 166//164 159//164
f 80//165 157//165 78//165 168//165
f 39//166 158//166 28//166
f 76//167 80//167 77//167
f 30//168 98//168 28//168 29//168
f 98//169 39//169 28//169
f 74//170 23//170 165//170
f 86//171 74//171 165//171
f 23//172 24//172 25//172
f 166//173 23//173 159//173
f 65//174 107//174 23//174 166//174
f 56//175 22//175 159//175 74//175 167//175 168//175 78//175
f 167//176 74//176 86//176
f 77//177 80//177 168//177
f 81//178 164//178 76//178
f 169//179 46//179 95//179
f 45//180 95//180 123//180
f 96//181 47//181 169//181
f 47//182 129//182 46//182 169//182
f 16//183 68//183 84//183
f 68//184 152//184 84//184
f 165//185 84//185 154//185
f 165//186 25//186 84//186
f 86//187 165//187 154//187
